<svg width="99" height="32" viewBox="0 0 99 32" fill="none" xmlns="http://www.w3.org/2000/svg">
<path fill-rule="evenodd" clip-rule="evenodd" d="M89.8725 1.23009C91.7385 1.23011 93.3474 1.69675 94.7 2.63044C95.5922 3.2161 96.3484 3.96177 96.969 4.86708C97.0454 4.97855 97.1197 5.09251 97.192 5.20884C97.4402 5.60817 97.6642 6.03615 97.8639 6.49261C98.1515 7.12699 98.3846 7.8045 98.563 8.5247C98.6259 8.77848 98.6822 9.03754 98.7315 9.30198C98.9105 10.2618 99 11.2918 99 12.3919C99 14.6838 98.6074 16.6787 97.8234 18.3763C97.0387 20.0739 95.9433 21.3895 94.5374 22.3232C93.1309 23.2569 91.4677 23.7239 89.5477 23.7239C87.5732 23.7239 85.9912 23.2428 84.8013 22.2809C83.9671 21.6064 83.3718 20.7582 83.0161 19.7361V28.8489C83.0161 30.5891 81.6541 32 79.9738 32C78.2935 32 76.9312 30.5891 76.9312 28.8489V4.74254C76.9312 3.03708 78.2663 1.6544 79.913 1.6544C81.5597 1.65446 82.8945 3.03712 82.8945 4.74254V5.12774C83.3153 4.11775 84.0051 3.28525 84.9635 2.63044C86.2887 1.69678 87.925 1.23009 89.8725 1.23009ZM87.7625 6.32281C86.3562 6.32283 85.1934 6.86054 84.2738 7.93567C83.3814 8.98258 82.935 10.4964 82.935 12.477C82.935 14.4576 83.3814 15.9856 84.2738 17.0607C85.1933 18.1075 86.3833 18.6308 87.8436 18.6308C89.2771 18.6308 90.4402 18.0931 91.3326 17.018C92.2251 15.9429 92.6714 14.4152 92.6715 12.4347C92.6715 10.454 92.2112 8.94022 91.2921 7.89331C90.3996 6.84647 89.2232 6.32281 87.7625 6.32281Z" fill="url(#paint0_linear_251_199)"/>
<path d="M24.9025 10.6545C25.7056 10.2158 26.6954 10.6521 26.9468 11.5556L29.4399 20.517C29.6029 21.1032 29.3463 21.7273 28.8254 22.0119C28.1282 22.3928 27.2692 22.0142 27.051 21.2299L25.917 17.1538C25.277 18.9271 24.2623 20.5428 22.9341 21.8757C20.9757 23.8412 18.4459 25.0825 15.7369 25.407C13.028 25.7316 10.2913 25.1215 7.95139 23.6711C6.02276 22.4756 4.45248 20.7643 3.39795 18.7293C3.02401 18.0077 3.3912 17.1406 4.12644 16.8391L6.00151 16.0702C6.73673 15.7688 7.55803 16.1526 7.9832 16.8431C8.60662 17.8555 9.45183 18.7104 10.4578 19.3339C11.8759 20.213 13.5344 20.583 15.1762 20.3863C16.818 20.1896 18.3512 19.4372 19.5381 18.246C20.1836 17.5982 20.7064 16.8399 21.0884 16.0108L19.5056 16.8761C18.7218 17.3043 17.756 16.8786 17.5106 15.9967C17.3273 15.3377 17.6156 14.6358 18.2014 14.3158L24.9025 10.6545Z" fill="url(#paint1_linear_251_199)"/>
<path fill-rule="evenodd" clip-rule="evenodd" d="M66.2555 1.23009C69.2303 1.23009 71.502 1.92324 73.0706 3.30961C74.6392 4.69603 75.4235 6.69096 75.4235 9.29402V18.843C75.4235 19.5504 75.4641 20.272 75.5452 21.0076C75.7238 22.1753 74.9067 23.2996 73.7652 23.2996H71.909C70.7513 23.2996 69.7185 22.4954 69.5819 21.3048C69.5465 20.8409 69.5228 20.3282 69.5106 19.7669C68.9353 20.9287 68.1611 21.8373 67.1885 22.493C65.9715 23.3135 64.4841 23.7239 62.7263 23.7239C60.6709 23.7239 59.0347 23.1862 57.8176 22.1111C56.6006 21.0076 55.9922 19.5504 55.9922 17.7395C55.9923 15.7307 56.7088 14.118 58.142 12.9013C59.6025 11.6564 61.631 10.8501 64.2273 10.4822L69.3386 9.72846V8.61484C69.3386 7.73774 69.0546 7.05868 68.4867 6.57768C67.9459 6.0684 67.1345 5.8138 66.0527 5.81379C65.025 5.81379 64.2001 5.99771 63.5781 6.36553C62.562 6.99372 61.5823 7.97803 60.3988 7.97803H60.0968C58.2519 7.97795 56.8102 6.18782 57.9428 4.67954C58.3625 4.12058 58.8752 3.60726 59.4809 3.13982C61.1306 1.86662 63.3888 1.2301 66.2555 1.23009ZM65.2414 14.0899C64.1596 14.2596 63.3618 14.5708 62.8479 15.0236C62.3341 15.4763 62.0771 16.0987 62.0771 16.8909C62.0771 17.5983 62.3206 18.1359 62.8074 18.5038C63.2941 18.8716 63.9432 19.0555 64.7544 19.0555C66.0255 19.0555 67.1073 18.7017 67.9998 17.9944C68.8923 17.2588 69.3386 16.4099 69.3386 15.4479V13.4328L65.2414 14.0899Z" fill="url(#paint2_linear_251_199)"/>
<path d="M54.3636 1.6544C56.3075 1.6544 57.7001 3.59801 57.1367 5.52489L52.7766 20.4378C52.2796 22.1372 50.7672 23.2996 49.0526 23.2996C47.3063 23.2996 45.7737 22.0945 45.3046 20.3523L42.1225 8.53411L38.9408 20.3523C38.4716 22.0945 36.9391 23.2996 35.1927 23.2996C33.4782 23.2996 31.9657 22.1372 31.4688 20.4378L27.1391 5.62952C26.5605 3.65057 27.9908 1.6544 29.9873 1.6544C31.3876 1.65448 32.5985 2.66565 32.8954 4.08291L35.479 16.4203L38.6164 4.49563C39.0577 2.81826 40.5288 1.65447 42.2074 1.6544C43.8826 1.6544 45.3515 2.81353 45.7961 4.48622L48.9684 16.4203L51.5304 4.0268C51.8165 2.64308 52.9972 1.65442 54.3636 1.6544Z" fill="url(#paint3_linear_251_199)"/>
<path d="M13.2463 0.0849841C15.9552 -0.239534 18.6919 0.370878 21.0318 1.82129C22.9604 3.01679 24.5307 4.72804 25.5852 6.76304C25.9591 7.48465 25.592 8.35176 24.8567 8.65322L22.9817 9.42181C22.2465 9.72326 21.4252 9.3397 21 8.64924C20.3766 7.63678 19.5314 6.78166 18.5254 6.15809C17.1073 5.27905 15.4487 4.90897 13.807 5.10566C12.1652 5.30236 10.632 6.05486 9.44508 7.246C8.97428 7.7185 8.56833 8.24957 8.23489 8.8241L9.98307 7.86906C10.7669 7.44097 11.7327 7.86693 11.978 8.7488C12.1613 9.40779 11.8726 10.1097 11.2869 10.4297L4.58577 14.091C3.78273 14.5297 2.79324 14.0934 2.54186 13.1899L0.0487558 4.22845C-0.114313 3.64231 0.142021 3.01789 0.662943 2.73326C1.36007 2.35237 2.21911 2.73122 2.43734 3.51561L3.49058 7.30175C4.1209 5.9346 4.98417 4.68463 6.0487 3.61625C8.00711 1.65082 10.5373 0.409548 13.2463 0.0849841Z" fill="url(#paint4_linear_251_199)"/>
<defs>
<linearGradient id="paint0_linear_251_199" x1="22.9076" y1="22.0519" x2="18.7708" y2="8.32315" gradientUnits="userSpaceOnUse">
<stop stop-color="#0084FF"/>
<stop offset="1" stop-color="#229CFF"/>
</linearGradient>
<linearGradient id="paint1_linear_251_199" x1="22.9076" y1="22.0519" x2="18.7708" y2="8.32315" gradientUnits="userSpaceOnUse">
<stop stop-color="#0084FF"/>
<stop offset="1" stop-color="#229CFF"/>
</linearGradient>
<linearGradient id="paint2_linear_251_199" x1="22.9076" y1="22.0519" x2="18.7708" y2="8.32315" gradientUnits="userSpaceOnUse">
<stop stop-color="#0084FF"/>
<stop offset="1" stop-color="#229CFF"/>
</linearGradient>
<linearGradient id="paint3_linear_251_199" x1="22.9076" y1="22.0519" x2="18.7708" y2="8.32315" gradientUnits="userSpaceOnUse">
<stop stop-color="#0084FF"/>
<stop offset="1" stop-color="#229CFF"/>
</linearGradient>
<linearGradient id="paint4_linear_251_199" x1="22.9076" y1="22.0519" x2="18.7708" y2="8.32315" gradientUnits="userSpaceOnUse">
<stop stop-color="#0084FF"/>
<stop offset="1" stop-color="#229CFF"/>
</linearGradient>
</defs>
</svg>
